<svg xmlns="http://www.w3.org/2000/svg" viewBox="0 0 126.06 102.74"><defs><style>.cls-1{fill:#fff;}.cls-2{fill:#be1e2d;}</style></defs><title>HG-Logo</title><g id="Layer_2" data-name="Layer 2"><g id="Layer_1-2" data-name="Layer 1"><polygon class="cls-1" points="126.06 26.96 72.17 0 62.34 4.91 52.57 0 28.44 12.05 28.44 21.59 18.95 16.79 0 26.26 0 92.72 3.03 94.23 3.03 94.23 18.04 101.73 36.99 92.77 36.99 82.98 51.22 90.08 67.38 82.43 106.46 101.95 108.03 102.73 126.06 93.72 126.06 51.12 120.99 48.58 126.06 46.07 126.06 26.96"/><polygon class="cls-2" points="73.11 76.76 67.83 10.67 52.56 2.99 49.66 4.92 49.66 67.59 34.31 74.98 34.31 27.53 18.95 19.86 16.14 21.26 16.14 84.63 2.71 91.08 18.07 98.76 34.31 91.07 34.31 78.65 51.25 87.11 73.11 76.76"/><polygon class="cls-1" points="18.95 83.28 18.95 56.25 31.12 50.17 31.12 77.2 52.56 66.48 52.56 2.99 31.12 13.71 31.12 31.53 18.95 37.61 18.95 19.79 2.67 27.92 2.67 91.07 3.01 91.24 18.95 83.28"/><path class="cls-2" d="M123.39,28.61,72.17,3,56.81,10.67l3.85,1.92-2.37,5.17L63,68.86l41.53,21.35L108,99.74l15.36-7.67V74.79l.06,0-.06,0m0-22-8.4-4.2,8.4-4.16"/><polygon class="cls-1" points="107.99 36.24 56.81 10.67 56.81 74.17 107.99 99.74 107.99 60.38 77.28 45.04 77.53 60.38 94.61 68.91 94.61 77.37 70.09 65.12 70.09 33.15 107.99 52.09 107.99 36.24"/></g></g></svg>